<svg width="162" height="162" viewBox="0 0 162 162" fill="none" xmlns="http://www.w3.org/2000/svg">
<path d="M72.0322 0.00102603C72.0322 0.00102603 85.3471 -0.110786 93.5322 2.00003C105.287 5.0314 121.532 15.501 121.532 15.501V22H112.531C112.531 22 102.302 13.359 94.0312 11.5C87.5536 10.0441 80.116 9.95063 76.5312 11.5C72.9465 13.0494 68.5312 17.5 68.5312 17.5L69.0312 19.5C69.0312 19.5 74.1601 18.0139 77.5312 17.5C83.9013 16.529 87.6614 16.5278 94.0312 17.5C97.7064 18.0609 103.281 19.75 103.281 19.75L112.531 22H121.532V32.5L127.032 38.5L124.532 96.5C124.532 96.5 123.235 99.6778 121.032 100.5C119.386 101.115 117.032 101.5 117.032 101.5C117.032 101.5 114.441 102.425 113.532 103.5C112.572 104.635 112.032 107 112.032 107L112.532 125.5C112.532 125.5 112.854 135.803 112.032 142C111.322 147.354 110.918 149.792 107.532 154C104.95 157.209 106.032 157 102.032 159.5C97.7143 162.199 87.0322 161.5 87.0322 161.5C87.0322 161.5 73.558 161.561 65.0322 160.5C58.0754 159.634 53.85 159.538 47.5322 156.5C41.513 153.605 34.0322 147 34.0322 147C34.0322 147 33.9598 143.342 34.0322 141C34.3129 131.919 35.0981 126.972 36.5312 118C38.3744 106.462 42.5322 88.5 42.5322 88.5L34.5322 82.5L42.5322 54L58.0322 59L44.0312 132C44.0312 132 48.1161 139.397 52.5312 142C57.15 144.723 66.0312 144.5 66.0312 144.5H85.0312C85.0312 144.5 80.0248 141.661 79.0312 138.5C78.3873 136.451 79.0312 133 79.0312 133C79.0312 133 80.2648 129.091 80.5312 126.5C80.7509 124.363 80.5312 121 80.5312 121L72.5312 117L68.0312 115C68.0312 115 74.6597 113.044 79.0312 112.5C84.4567 111.825 93.0312 112.5 93.0312 112.5C93.0312 112.5 96.7376 119.356 98.5312 124C100.223 128.379 102.032 135.5 102.032 135.5L103.531 100.5L107.532 94.5L112.532 59L112.032 55C112.032 55 106.797 54.403 103.531 55C101.526 55.3666 100.237 55.3836 98.5312 56.5C96.1749 58.0421 95.2143 63.768 94.5312 66.5C93.0312 72.5 93.0312 80.5 93.0312 80.5L95.5312 84.5C95.5312 84.5 97.4988 89.8008 96.5312 93C95.5686 96.1828 93.9591 97.9238 91.0312 99.5C88.0882 101.084 82.5312 100.5 82.5312 100.5L72.5312 95.5L65.0322 88.5L63.5312 85.5V82.5L68.0312 80.5L75.5312 79L86.0312 78L92.0312 31C92.0312 31 87.8104 32.9409 85.0312 34C82.1463 35.0994 80.5625 35.9141 77.5312 36.5C74.6492 37.057 72.9606 37.1885 70.0312 37C67.0505 36.8082 62.5312 35.5 62.5312 35.5L58.0322 59L42.5322 54L51.0322 26.5L58.0322 21.5C58.0322 21.5 61.1099 12.7462 64.5322 8C67.0367 4.52665 72.0322 0.00102603 72.0322 0.00102603Z" fill="url(#paint0_linear_1704_3742)"/>
<defs>
<linearGradient id="paint0_linear_1704_3742" x1="34" y1="81" x2="127" y2="81" gradientUnits="userSpaceOnUse">
<stop stop-color="#E71D0F"/>
<stop offset="1" stop-color="#FC940E"/>
</linearGradient>
</defs>
</svg>
