<svg width="48" height="48" viewBox="0 0 48 48" fill="none" xmlns="http://www.w3.org/2000/svg">
<path d="M24 0C10.7453 0 0 10.6878 0 23.8719C0 37.0559 10.7453 47.7437 24 47.7437C37.2547 47.7437 48 37.0559 48 23.8719C48 10.6878 37.2547 0 24 0ZM32.295 25.1373L20.295 32.5972C20.0522 32.748 19.7761 32.8238 19.5 32.8238C19.2499 32.8238 18.9994 32.7619 18.7727 32.6366C18.2959 32.3736 18 31.8745 18 31.3318V16.4119C18 15.8692 18.2959 15.3701 18.7727 15.1072C19.2495 14.8427 19.8325 14.8587 20.295 15.1465L32.295 22.6065C32.7334 22.8797 33 23.3576 33 23.8719C33 24.3861 32.7334 24.8641 32.295 25.1373Z" fill="white"/>
</svg>
